<?xml version="1.0" encoding="utf-8"?> 
<!-- Generator: Adobe Illustrator 23.0.5, SVG Export Plug-In . SVG Version: 6.00 Build 0)  -->
<svg version="1.1" id="Layer_1" xmlns="http://www.w3.org/2000/svg" xmlns:xlink="http://www.w3.org/1999/xlink" x="0px" y="0px"
	 viewBox="0 0 850.4 850.4" style="enable-background:new 0 0 850.4 850.4;" xml:space="preserve">
<style type="text/css">
	.st0{fill:#FFFFFF;}
	.st1{fill:#E3E3E3;}
	.st2{fill:#DADADA;}
</style>
<rect class="st0" width="850.4" height="850.4"/>
<g>
	<path class="st1" d="M411.2,345c4.6-0.7,9.2-1,14-1c51.4,0,93.1,41.7,93.1,93.1c0,4.8-0.4,9.4-1,14l96.2,96.2
		c10.4-12.1,16.7-27.8,16.7-44.9V371.8c0-38.1-31.2-69.3-69.3-69.3h-26.7v-9.6c0-7.8-6.4-14.2-14.2-14.2H344.9L411.2,345z"/>
	<path class="st1" d="M502.7,488.8c-16.7,25-45.2,41.4-77.5,41.4c-51.4,0-93.1-41.7-93.1-93.1c0-32.3,16.4-60.8,41.4-77.5
		l-57.3-57.3v0.2h-26.7c-38.1,0-69.3,31.2-69.3,69.3v130.6c0,38.1,31.2,69.3,69.3,69.3h271.4c7.4,0,14.5-1.2,21.2-3.4L502.7,488.8z"
		/>
</g>
<path class="st2" d="M638.2,212.2c-56.9-56.9-132.5-88.2-213-88.2s-156.1,31.3-213,88.2c-56.9,56.9-88.2,132.5-88.2,213
	s31.3,156.1,88.2,213c56.9,56.9,132.5,88.2,213,88.2s156.1-31.3,213-88.2c56.9-56.9,88.2-132.5,88.2-213S695.1,269.1,638.2,212.2z
	 M155.2,425.2c0-68.9,25.9-131.8,68.5-179.5l381.1,381.1C557,669.3,494,695.2,425.2,695.2C276.3,695.2,155.2,574.1,155.2,425.2z
	 M626.7,604.7L245.7,223.6c47.7-42.6,110.7-68.5,179.5-68.5c148.9,0,270,121.1,270,270C695.2,494,669.3,557,626.7,604.7z"/>
</svg>
